<svg xmlns="http://www.w3.org/2000/svg" width="600" height="358" fill="none"><path fill="#6E55DC" d="M372.891 0c7.802 0 16.857 1.834 24.036 5.186 20.517 10.167 30.256 25.951 34.145 41.576 4.128 16.585 1.464 30.884-3.274 42.045l-85.779 202.046-30.756-220.187c-1.534-10.975-.298-22.408 3.679-32.715C323.893 14.755 346.109 0 372.891 0Z"/><path fill="#EF1541" d="M227.367 0c-7.802 0-16.857 1.834-24.036 5.186-20.518 10.167-30.257 25.951-34.145 41.576-4.129 16.585-1.464 30.884 3.274 42.045l85.779 202.046 30.756-220.187c1.533-10.975.298-22.408-3.679-32.715C276.365 14.755 254.148 0 227.367 0Z"/><path fill="#FF7112" d="M77.232 98.89c-6.68 4.145-13.41 10.733-17.626 17.582-11.732 19.06-12.634 40.982-8.205 55.054 4.711 14.969 13.98 25.438 25.55 33.411l173.644 119.632-84.362-197.442c-4.338-10.152-11.944-19.275-20.746-25.684-19.472-14.178-47.35-15.52-68.255-2.552Z"/><path fill="#FCCC12" d="M5.138 268.848c-3.459 7.19-5.329 16.59-5.123 24.692.575 22.548 8.107 37.958 22.996 50.021 9.107 7.38 25.388 13.543 39.317 13.544l202.375.015-168.42-115.95c-5.766-3.97-18.188-10.91-34.546-11.033-13.755-.104-26.04 4.638-35.819 12.404-12.665 10.058-17.051 18.555-20.78 26.307Z"/><path fill="#069DE0" d="M522.599 98.89c6.68 4.145 13.41 10.733 17.626 17.582 11.732 19.06 12.634 40.982 8.205 55.054-4.712 14.969-13.981 25.438-25.55 33.411L349.236 324.569l84.362-197.442c4.338-10.152 11.944-19.275 20.746-25.684 19.472-14.178 47.35-15.52 68.255-2.552Z"/><path fill="#05AC3F" d="M594.862 268.85c3.458 7.189 5.329 16.589 5.122 24.692-.574 22.547-8.107 37.957-22.995 50.021-9.108 7.38-25.389 13.542-39.317 13.543l-202.844.015 168.654-115.95c5.769-3.966 18.329-11.033 35.531-11.033 13.755 0 25.806 4.638 35.584 12.404 12.665 10.058 16.536 18.556 20.265 26.308Z"/></svg>